<?xml version="1.0" encoding="iso-8859-1"?>
<!-- Generator: Adobe Illustrator 19.0.0, SVG Export Plug-In . SVG Version: 6.00 Build 0)  -->
<svg xmlns="http://www.w3.org/2000/svg" xmlns:xlink="http://www.w3.org/1999/xlink" version="1.1" id="Capa_1" x="0px" y="0px" viewBox="0 0 512.001 512.001" style="enable-background:new 0 0 512.001 512.001;" xml:space="preserve">
<path style="fill:#F5C882;" d="M239.586,144.321c-2.658-0.477-5.231-0.404-7.648,0.095l0.063-0.416V26.402  c0-8.002-5.067-15.321-12.737-17.604c-10.254-3.052-20.292,2.972-22.909,12.571l-38.524,141.255  c-3.849,14.114-4.896,28.845-3.082,43.361l11.507,92.06c1.077,8.618-2.586,17.146-9.578,22.298L16.001,424l80,80l136.568-136.569  c15.003-15.003,23.432-35.351,23.432-56.569V164.441C256.001,154.687,249.186,146.045,239.586,144.321z"/>
<path style="fill:#F5AF73;" d="M156.679,320.343L16.001,424l32.41,32.41l126.171-119.863c10.964-10.416,16.378-25.389,14.611-40.408  l-11.967-101.723c-0.813-6.908-0.62-13.897,0.572-20.749L206.314,9.704c-4.769,2.191-8.511,6.356-9.958,11.666l-38.525,141.254  c-3.849,14.114-4.896,28.845-3.082,43.361l11.507,92.06C167.334,306.663,163.671,315.191,156.679,320.343z"/>
<path style="fill:#F5C882;" d="M272.416,144.321c2.658-0.477,5.231-0.404,7.648,0.095L280.001,144V26.402  c0-8.002,5.067-15.321,12.737-17.604c10.254-3.052,20.292,2.972,22.909,12.571l38.524,141.255  c3.849,14.114,4.896,28.845,3.082,43.361l-11.507,92.06c-1.077,8.618,2.586,17.146,9.578,22.298L496.001,424l-80,80L279.433,367.431  c-15.003-15.003-23.432-35.351-23.432-56.569V164.441C256.001,154.687,262.816,146.045,272.416,144.321z"/>
<circle style="fill:#FFF082;" cx="96.931" cy="365.76" r="16"/>
<path style="fill:#F5AF73;" d="M304.001,357.481c-15.371-13.663-24.166-33.248-24.166-53.814V175.834  c0-8.745-7.089-15.834-15.834-15.834l0,0c-4.418,0-8,3.582-8,8v142.862c0,21.217,8.429,41.566,23.431,56.569L416.001,504l0,0  l21.176-21.176L304.001,357.481z"/>
<path style="fill:#FFF082;" d="M426.278,350.805c-6.41-6.078-16.535-5.816-22.621,0.598l-68.672,72.387  c-6.078,6.41-5.813,16.539,0.598,22.621c3.094,2.934,7.055,4.391,11.008,4.391c4.238,0,8.465-1.672,11.613-4.988l68.672-72.387  C432.954,367.016,432.689,356.887,426.278,350.805z"/>
<g>
	<path style="fill:#F5AF73;" d="M280.053,144.416c-1.309-0.271-2.663-0.416-4.052-0.416C277.39,144,278.745,144.146,280.053,144.416   z"/>
	<path style="fill:#F5AF73;" d="M302.001,8c0,0-6,0-9.135,0.76c-7.824,2.271-12.865,9.941-12.865,18.087l0.064,117.572   c9.087,1.883,21.936,15.946,21.936,25.581V8z"/>
</g>
<g>
	<circle style="fill:#FFF082;" cx="119.771" cy="388.43" r="16"/>
	<circle style="fill:#FFF082;" cx="142.191" cy="411.02" r="16"/>
	<circle style="fill:#FFF082;" cx="164.851" cy="433.69" r="16"/>
</g>
<path style="fill:#FFDC64;" d="M365.303,431.813c-4.234,0-8.478-1.561-11.79-4.703c-5.114-4.852-6.564-12.105-4.289-18.329  l-14.238,15.009c-6.078,6.41-5.813,16.539,0.598,22.621c3.094,2.934,7.055,4.391,11.008,4.391c4.238,0,8.465-1.672,11.613-4.988  l15.41-16.244C371.033,431.007,368.188,431.813,365.303,431.813z"/>
<path d="M215.92,232.468c-4.142,0-7.5,3.358-7.5,7.5v8.016c0,4.142,3.358,7.5,7.5,7.5s7.5-3.358,7.5-7.5v-8.016  C223.42,235.826,220.063,232.468,215.92,232.468z"/>
<path d="M500.934,418.301l-63.56-46.834c3.518-8.708,1.623-19.068-5.592-25.914c-8.689-8.239-22.061-8.519-31.092-1.116  l-40.718-30.002c-4.816-3.548-7.346-9.439-6.604-15.375l11.531-92.245c1.949-15.595,0.841-31.19-3.294-46.352l-38.602-141.54  C319.965,7.781,309.777,0,298.229,0c-14.16,0-25.679,11.52-25.679,25.679v110.824c-6.488,0.825-12.276,3.913-16.548,8.45  c-4.272-4.537-10.06-7.625-16.548-8.45V25.679C239.453,11.52,227.933,0,213.773,0c-11.549,0-21.736,7.781-24.774,18.923  l-38.602,141.54c-4.135,15.162-5.243,30.757-3.294,46.352l11.531,92.245c0.742,5.936-1.789,11.827-6.604,15.375l-42.926,31.629  c-9.084-5.696-21.235-4.615-29.132,3.282c-6.131,6.131-8.142,14.827-6.08,22.663l-62.825,46.292  c-3.334,2.458-4.046,7.152-1.589,10.487c1.471,1.995,3.742,3.051,6.044,3.051c1.545,0,3.104-0.476,4.443-1.462l62.204-45.835  c4.009,3.124,8.795,4.761,13.632,4.926c0.196,5.753,2.461,11.448,6.843,15.83c4.254,4.254,9.849,6.672,15.832,6.873  c0.204,5.743,2.467,11.426,6.841,15.8c4.382,4.382,10.077,6.646,15.831,6.843c0.126,3.688,1.108,7.345,2.954,10.655l-53.728,53.728  c-2.929,2.929-2.929,7.678,0,10.606c1.464,1.464,3.384,2.197,5.303,2.197s3.839-0.732,5.303-2.197l54.248-54.248  c2.991,1.3,6.193,1.971,9.401,1.971c6.026,0,12.052-2.293,16.64-6.881c7.03-7.03,8.653-17.431,4.91-26.041l51.645-51.645  c7.757-7.756,13.856-16.721,18.175-26.456c4.319,9.735,10.419,18.699,18.175,26.456l51.601,51.601  c-4.553,9.034-2.902,20.363,4.806,27.676c4.391,4.164,10.141,6.458,16.19,6.458c3.703,0,7.337-0.892,10.601-2.537l53.646,53.647  c1.464,1.464,3.384,2.197,5.303,2.197s3.839-0.732,5.303-2.197c2.929-2.929,2.929-7.678,0-10.606l-52.939-52.939l59.616-62.841  l63.731,46.96c1.34,0.987,2.898,1.462,4.443,1.462c2.302,0,4.574-1.056,6.044-3.051C504.98,425.453,504.269,420.758,500.934,418.301  z M90.579,359.953c1.664-1.663,3.848-2.495,6.033-2.495s4.37,0.832,6.033,2.495c3.327,3.327,3.327,8.74,0,12.067  c-3.327,3.326-8.739,3.326-12.066,0C87.252,368.693,87.252,363.279,90.579,359.953z M113.251,382.626  c1.612-1.611,3.754-2.499,6.033-2.499s4.421,0.887,6.033,2.5c1.612,1.611,2.499,3.754,2.499,6.033s-0.887,4.421-2.499,6.033l0,0  c-1.611,1.612-3.753,2.499-6.033,2.499c-2.279,0-4.421-0.888-6.033-2.499C109.925,391.366,109.925,385.953,113.251,382.626z   M135.924,405.299c1.664-1.664,3.848-2.495,6.034-2.495c2.185,0,4.37,0.832,6.033,2.495c3.327,3.327,3.327,8.74,0,12.066  c-3.327,3.327-8.74,3.326-12.067,0C132.598,414.039,132.598,408.625,135.924,405.299z M170.664,440.039  c-3.05,3.049-7.848,3.294-11.19,0.753c-0.015-0.015-0.027-0.031-0.042-0.046c-0.265-0.265-0.55-0.498-0.843-0.716  c-3.318-3.327-3.316-8.734,0.008-12.058c1.664-1.663,3.848-2.495,6.033-2.495s4.37,0.832,6.033,2.495  C173.991,431.298,173.991,436.712,170.664,440.039z M227.219,362.353l-51.124,51.124c-3.31-1.847-6.967-2.829-10.655-2.955  c-0.197-5.753-2.461-11.448-6.843-15.83c-4.375-4.374-10.058-6.637-15.8-6.841c-0.201-5.982-2.619-11.579-6.873-15.832  c-4.253-4.254-9.849-6.672-15.832-6.873c-0.09-2.534-0.581-5.052-1.483-7.455l42.318-31.181c9.18-6.765,14.004-17.996,12.59-29.312  l-11.531-92.245c-1.705-13.642-0.735-27.283,2.882-40.544l38.603-141.54c1.263-4.633,5.5-7.869,10.303-7.869  c5.889,0,10.679,4.791,10.679,10.679v113.124c-9.453,4.367-16.032,13.932-16.032,25.011v44.089c0,4.142,3.358,7.5,7.5,7.5  s7.5-3.358,7.5-7.5v-44.089c0-6.915,5.625-12.54,12.54-12.54s12.541,5.625,12.541,12.54v147.159  C248.501,330.382,240.943,348.629,227.219,362.353z M346.773,443.693c-2.192,0-4.277-0.832-5.868-2.34  c-3.414-3.238-3.557-8.651-0.32-12.064l35.342-37.254c2.851-3.005,2.726-7.752-0.279-10.603c-3.005-2.852-7.753-2.725-10.603,0.279  l-29.651,31.254l-50.613-50.613c-13.724-13.724-21.282-31.971-21.282-51.379V163.814c0-6.915,5.625-12.54,12.541-12.54  c6.915,0,12.54,5.625,12.54,12.54v84.169c0,4.142,3.358,7.5,7.5,7.5s7.5-3.358,7.5-7.5v-84.169c0-11.079-6.579-20.644-16.032-25.011  V25.679c0-5.889,4.791-10.679,10.679-10.679c4.803,0,9.04,3.236,10.303,7.869l38.602,141.541  c3.617,13.262,4.586,26.903,2.882,40.544l-11.531,92.245c-1.415,11.315,3.41,22.547,12.59,29.312l39.045,28.77l-4.891,5.155  c-2.851,3.005-2.726,7.752,0.279,10.603c3.006,2.852,7.752,2.726,10.603-0.279l13.285-14.003c3.239-3.413,8.651-3.556,12.063-0.321  c3.413,3.239,3.556,8.652,0.32,12.065l-68.809,72.53C351.341,442.748,349.14,443.693,346.773,443.693z"/>
<g>
</g>
<g>
</g>
<g>
</g>
<g>
</g>
<g>
</g>
<g>
</g>
<g>
</g>
<g>
</g>
<g>
</g>
<g>
</g>
<g>
</g>
<g>
</g>
<g>
</g>
<g>
</g>
<g>
</g>
</svg>
